<svg xmlns="http://www.w3.org/2000/svg" width="240" height="240" viewBox="0 0 240 240">
  <path fill="#fff2d9" stroke="#874100" stroke-width="6" stroke-linejoin="round" d="M105 20h30l6 24 18 8 22-12 21 21-12 22 8 18 24 6v30l-24 6-8 18 12 22-21 21-22-12-18 8-6 24h-30l-6-24-18-8-22 12-21-21 12-22-8-18-24-6v-30l24-6 8-18-12-22 21-21 22 12 18-8Z"/>
  <circle cx="120" cy="122" r="65" fill="white" stroke="#f5af33" stroke-width="6"/>
  <g stroke="#102934" stroke-width="6" stroke-linecap="round">
    <path fill="none" d="M100 77V65m20 12V65m20 12V65m-40 102v12m20-12v12m20-12v12M75 102H63m12 20H63m12 20H63m102-40h12m-12 20h12m-12 20h12"/>
    <rect x="75" y="77" width="90" height="90" rx="9" fill="#40566c"/>
    <rect x="96" y="98" width="48" height="48" rx="4" fill="#f5af33"/>
  </g>
  <path fill="none" stroke="#ffdb80" stroke-width="5" stroke-linecap="round" d="M107 125v-16h16"/>
</svg>
